[h264 @ 0x55a7a3f7c1c0] Reinit context to 640x352, pix_fmt: yuv420p
Input #0, mov,mp4,m4a,3gp,3g2,mj2, from '/var/www/html/project/media/video/original/WhatsApp_Video_2022-01-29_at_22.34.03.mp4':
  Metadata:
    major_brand     : mp42
    minor_version   : 0
    compatible_brands: mp42isom
  Duration: 00:00:27.24, start: 0.000000, bitrate: 2284 kb/s
    Stream #0:0(und): Video: h264 (Baseline), 1 reference frame (avc1 / 0x31637661), yuv420p(tv, unknown/bt470bg/unknown, left), 640x352, 1964 kb/s, 30.01 fps, 30 tbr, 90k tbn, 180k tbc (default)
    Metadata:
      rotate          : 90
    Side data:
      displaymatrix: rotation of -90.00 degrees
    Stream #0:1(und): Audio: aac (LC) (mp4a / 0x6134706D), 48000 Hz, stereo, fltp, 320 kb/s (default)
Input #1, png_pipe, from '/var/www/html/project/static/images/templates/logo_vertical.png':
  Duration: N/A, bitrate: N/A
    Stream #1:0: Video: png, 1 reference frame, rgba(pc), 1920x1080 [SAR 2835:2835 DAR 16:9], 25 tbr, 25 tbn, 25 tbc
[h264 @ 0x55a7a3fbe6c0] Reinit context to 1280x720, pix_fmt: yuv420p
Input #2, mov,mp4,m4a,3gp,3g2,mj2, from '/var/www/html/project/static/images/templates/Codino.mp4':
  Metadata:
    major_brand     : mp42
    minor_version   : 1
    compatible_brands: isommp41mp42
    creation_time   : 2021-07-11T07:02:58.000000Z
  Duration: 00:00:02.00, start: 0.000000, bitrate: 1007 kb/s
    Stream #2:0(ita): Audio: aac (LC) (mp4a / 0x6134706D), 44100 Hz, stereo, fltp, 102 kb/s (default)
    Metadata:
      creation_time   : 2021-07-11T07:02:58.000000Z
      handler_name    : Core Media Audio
    Stream #2:1(und): Video: h264 (High), 1 reference frame (avc1 / 0x31637661), yuv420p(tv, bt709, progressive, left), 1280x720 [SAR 1:1 DAR 16:9], 813 kb/s, 25 fps, 25 tbr, 25k tbn, 50k tbc (default)
    Metadata:
      creation_time   : 2021-07-11T07:02:58.000000Z
      handler_name    : Core Media Video
[Parsed_scale_1 @ 0x55a7a3ff0400] w:1280 h:720 flags:'bilinear' interl:0
[Parsed_scale_4 @ 0x55a7a3fc12c0] w:-1 h:720 flags:'bilinear' interl:0
[Parsed_scale_7 @ 0x55a7a3fc1700] w:1280 h:720 flags:'bilinear' interl:0
[Parsed_scale_9 @ 0x55a7a406fcc0] w:1280 h:720 flags:'bilinear' interl:0
Stream mapping:
  Stream #0:0 (h264) -> split
  Stream #0:1 (aac) -> concat:in0:a0
  Stream #1:0 (png) -> scale
  Stream #2:0 (aac) -> concat:in1:a0
  Stream #2:1 (h264) -> scale
  concat:out:v0 -> Stream #0:0 (libx264)
  concat:out:a0 -> Stream #0:1 (aac)
Press [q] to stop, [?] for help
[h264 @ 0x55a7a4051e00] Reinit context to 640x352, pix_fmt: yuv420p
[h264 @ 0x55a7a443aec0] Reinit context to 1280x720, pix_fmt: yuv420p
[Parsed_scale_1 @ 0x55a7a4e4ecc0] w:1280 h:720 flags:'bilinear' interl:0
[Parsed_scale_4 @ 0x55a7a4e5a180] w:-1 h:720 flags:'bilinear' interl:0
[Parsed_scale_7 @ 0x55a7a4e5ca00] w:1280 h:720 flags:'bilinear' interl:0
[Parsed_scale_9 @ 0x55a7a4e5e240] w:1280 h:720 flags:'bilinear' interl:0
[graph 0 input from stream 0:0 @ 0x55a7a4e62a40] w:640 h:352 pixfmt:yuv420p tb:1/90000 fr:30/1 sar:0/1 sws_param:flags=2
[graph 0 input from stream 1:0 @ 0x55a7a4e58f00] w:1920 h:1080 pixfmt:rgba tb:1/25 fr:25/1 sar:2835/2835 sws_param:flags=2
[graph 0 input from stream 2:1 @ 0x55a7a4e5da40] w:1280 h:720 pixfmt:yuv420p tb:1/25000 fr:25/1 sar:1/1 sws_param:flags=2
[graph_0_in_0_1 @ 0x55a7a401c200] tb:1/48000 samplefmt:fltp samplerate:48000 chlayout:0x3
[graph_0_in_2_0 @ 0x55a7a4e5e000] tb:1/44100 samplefmt:fltp samplerate:44100 chlayout:0x3
[Parsed_concat_12 @ 0x55a7a4e60a80] auto-inserting filter 'auto_resampler_0' between the filter 'graph_0_in_2_0' and the filter 'Parsed_concat_12'
[transpose @ 0x55a7a4e637c0] w:640 h:352 dir:1 -> w:352 h:640 rotation:clockwise vflip:0
[Parsed_scale_1 @ 0x55a7a4e4ecc0] w:352 h:640 fmt:yuv420p sar:0/1 -> w:1280 h:720 fmt:yuv420p sar:0/1 flags:0x2
[Parsed_boxblur_2 @ 0x55a7a401c040] luma_radius:36 luma_power:1 chroma_radius:18 chroma_power:1 alpha_radius:36 alpha_power:1 w:1280 chroma_w:640 h:720 chroma_h:360
[Parsed_setsar_3 @ 0x55a7a4e591c0] w:1280 h:720 sar:0/1 dar:16/9 -> sar:1/1 dar:16/9
[Parsed_scale_4 @ 0x55a7a4e5a180] w:352 h:640 fmt:yuv420p sar:0/1 -> w:396 h:720 fmt:yuva420p sar:0/1 flags:0x2
[Parsed_setsar_5 @ 0x55a7a4e59fc0] w:396 h:720 sar:0/1 dar:11/20 -> sar:1/1 dar:11/20
[Parsed_overlay_6 @ 0x55a7a4e5b4c0] main w:1280 h:720 fmt:yuv420p overlay w:396 h:720 fmt:yuva420p
[Parsed_overlay_6 @ 0x55a7a4e5b4c0] [framesync @ 0x55a7a4e5b968] Selected 1/90000 time base
[Parsed_overlay_6 @ 0x55a7a4e5b4c0] [framesync @ 0x55a7a4e5b968] Sync level 2
[Parsed_scale_7 @ 0x55a7a4e5ca00] w:1920 h:1080 fmt:rgba sar:2835/2835 -> w:1280 h:720 fmt:yuva420p sar:1/1 flags:0x2
[Parsed_setsar_8 @ 0x55a7a4e5d540] w:1280 h:720 sar:1/1 dar:16/9 -> sar:1/1 dar:16/9
[Parsed_overlay_11 @ 0x55a7a4e5f8c0] main w:1280 h:720 fmt:yuv420p overlay w:1280 h:720 fmt:yuva420p
[Parsed_overlay_11 @ 0x55a7a4e5f8c0] [framesync @ 0x55a7a4e5fa28] Selected 1/90000 time base
[Parsed_overlay_11 @ 0x55a7a4e5f8c0] [framesync @ 0x55a7a4e5fa28] Sync level 2
[Parsed_scale_9 @ 0x55a7a4e5e240] w:1280 h:720 fmt:yuv420p sar:1/1 -> w:1280 h:720 fmt:yuv420p sar:1/1 flags:0x2
[Parsed_setsar_10 @ 0x55a7a4e5ed40] w:1280 h:720 sar:1/1 dar:16/9 -> sar:1/1 dar:16/9
[auto_resampler_0 @ 0x55a7a4e6bf40] ch:2 chl:stereo fmt:fltp r:44100Hz -> ch:2 chl:stereo fmt:fltp r:48000Hz
[libx264 @ 0x55a7a3fb7fc0] using SAR=1/1
[libx264 @ 0x55a7a3fb7fc0] using cpu capabilities: MMX2 SSE2Fast SSSE3 SSE4.2 AVX FMA3 BMI2 AVX2
[libx264 @ 0x55a7a3fb7fc0] profile High, level 3.1
[libx264 @ 0x55a7a3fb7fc0] 264 - core 155 r2917 0a84d98 - H.264/MPEG-4 AVC codec - Copyleft 2003-2018 - http://www.videolan.org/x264.html - options: cabac=1 ref=1 deblock=1:0:0 analyse=0x3:0x113 me=hex subme=2 psy=1 psy_rd=1.00:0.00 mixed_ref=0 me_range=16 chroma_me=1 trellis=0 8x8dct=1 cqm=0 deadzone=21,11 fast_pskip=1 chroma_qp_offset=0 threads=22 lookahead_threads=5 sliced_threads=0 nr=0 decimate=1 interlaced=0 bluray_compat=0 constrained_intra=0 bframes=3 b_pyramid=2 b_adapt=1 b_bias=0 direct=1 weightb=1 open_gop=0 weightp=1 keyint=250 keyint_min=25 scenecut=40 intra_refresh=0 rc_lookahead=10 rc=crf mbtree=1 crf=18.0 qcomp=0.60 qpmin=0 qpmax=69 qpstep=4 ip_ratio=1.40 aq=1:1.00
Output #0, mp4, to '/var/www/html/project/media/video/watermarks/WhatsApp_Video_2022-01-29_at_22.34.03.mp4':
  Metadata:
    major_brand     : mp42
    minor_version   : 0
    compatible_brands: mp42isom
    encoder         : Lavf58.29.100
    Stream #0:0: Video: h264 (libx264), 1 reference frame (avc1 / 0x31637661), yuv420p(progressive), 1280x720 [SAR 1:1 DAR 16:9], q=-1--1, 30 fps, 15360 tbn, 30 tbc (default)
    Metadata:
      encoder         : Lavc58.54.100 libx264
    Side data:
      cpb: bitrate max/min/avg: 0/0/0 buffer size: 0 vbv_delay: -1
    Stream #0:1: Audio: aac (LC) (mp4a / 0x6134706D), 48000 Hz, stereo, fltp, delay 1024, 128 kb/s (default)
    Metadata:
      encoder         : Lavc58.54.100 aac
[Parsed_overlay_6 @ 0x55a7a4e5b4c0] [framesync @ 0x55a7a4e5b968] Sync level 1
[Parsed_overlay_6 @ 0x55a7a4e5b4c0] [framesync @ 0x55a7a4e5b968] Sync level 0
[Parsed_overlay_11 @ 0x55a7a4e5f8c0] [framesync @ 0x55a7a4e5fa28] Sync level 0
[Parsed_concat_12 @ 0x55a7a4e60a80] EOF on in0:v0, 1 streams left in segment.
[Parsed_concat_12 @ 0x55a7a4e60a80] EOF on in0:a0, 0 streams left in segment.
[Parsed_concat_12 @ 0x55a7a4e60a80] Segment finished at pts=27242666
[Parsed_concat_12 @ 0x55a7a4e60a80] EOF on in1:v0, 1 streams left in segment.
[Parsed_concat_12 @ 0x55a7a4e60a80] EOF on in1:a0, 0 streams left in segment.
[Parsed_concat_12 @ 0x55a7a4e60a80] Segment finished at pts=29261353
No more output streams to write to, finishing.
frame=  866 fps= 70 q=-1.0 Lsize=    8715kB time=00:00:29.26 bitrate=2439.2kbits/s speed=2.35x    
[AVIOContext @ 0x55a7a3f7a500] Statistics: 0 seeks, 25 writeouts
video:8222kB audio:460kB subtitle:0kB other streams:0kB global headers:0kB muxing overhead: 0.375816%
Input file #0 (/var/www/html/project/media/video/original/WhatsApp_Video_2022-01-29_at_22.34.03.mp4):
  Input stream #0:0 (video): 816 packets read (6677680 bytes); 816 frames decoded; 
  Input stream #0:1 (audio): 1277 packets read (1089707 bytes); 1277 frames decoded (1307648 samples); 
  Total: 2093 packets (7767387 bytes) demuxed
Input file #1 (/var/www/html/project/static/images/templates/logo_vertical.png):
  Input stream #1:0 (video): 1 packets read (93903 bytes); 1 frames decoded; 
  Total: 1 packets (93903 bytes) demuxed
Input file #2 (/var/www/html/project/static/images/templates/Codino.mp4):
  Input stream #2:0 (audio): 89 packets read (26579 bytes); 87 frames decoded (89024 samples); 
  Input stream #2:1 (video): 50 packets read (203365 bytes); 50 frames decoded; 
  Total: 139 packets (229944 bytes) demuxed
Output file #0 (/var/www/html/project/media/video/watermarks/WhatsApp_Video_2022-01-29_at_22.34.03.mp4):
  Output stream #0:0 (video): 866 frames encoded; 866 packets muxed (8419805 bytes); 
  Output stream #0:1 (audio): 1372 frames encoded (1404545 samples); 1373 packets muxed (470982 bytes); 
  Total: 2239 packets (8890787 bytes) muxed
[AVIOContext @ 0x55a7a4070680] Statistics: 2 seeks, 37 writeouts
[libx264 @ 0x55a7a3fb7fc0] frame I:5     Avg QP:12.33  size: 46609
[libx264 @ 0x55a7a3fb7fc0] frame P:233   Avg QP:16.25  size: 18307
[libx264 @ 0x55a7a3fb7fc0] frame B:628   Avg QP:18.65  size:  6243
[libx264 @ 0x55a7a3fb7fc0] consecutive B-frames:  2.7%  1.8%  0.3% 95.2%
[libx264 @ 0x55a7a3fb7fc0] mb I  I16..4: 42.2% 33.1% 24.7%
[libx264 @ 0x55a7a3fb7fc0] mb P  I16..4:  8.8%  7.5%  2.1%  P16..4: 27.2% 11.8%  6.0%  0.0%  0.0%    skip:36.6%
[libx264 @ 0x55a7a3fb7fc0] mb B  I16..4:  1.6%  1.3%  0.2%  B16..8: 15.2%  5.5%  0.6%  direct:11.3%  skip:64.4%  L0:40.4% L1:45.4% BI:14.2%
[libx264 @ 0x55a7a3fb7fc0] 8x8 transform intra:40.5% inter:24.8%
[libx264 @ 0x55a7a3fb7fc0] coded y,uvDC,uvAC intra: 32.1% 46.1% 8.3% inter: 7.5% 17.7% 0.1%
[libx264 @ 0x55a7a3fb7fc0] i16 v,h,dc,p: 21% 39% 11% 30%
[libx264 @ 0x55a7a3fb7fc0] i8 v,h,dc,ddl,ddr,vr,hd,vl,hu: 13% 50% 16%  2%  4%  3%  7%  1%  3%
[libx264 @ 0x55a7a3fb7fc0] i4 v,h,dc,ddl,ddr,vr,hd,vl,hu: 17% 30% 22%  5%  6%  4%  8%  3%  7%
[libx264 @ 0x55a7a3fb7fc0] i8c dc,h,v,p: 45% 37% 11%  8%
[libx264 @ 0x55a7a3fb7fc0] Weighted P-Frames: Y:5.6% UV:0.0%
[libx264 @ 0x55a7a3fb7fc0] kb/s:2303.98
[aac @ 0x55a7a3fb33c0] Qavg: 1822.246
[AVIOContext @ 0x55a7a3f83500] Statistics: 16625754 bytes read, 294 seeks
[AVIOContext @ 0x55a7a40961c0] Statistics: 93903 bytes read, 0 seeks
[AVIOContext @ 0x55a7a3f804c0] Statistics: 1530915 bytes read, 42 seeks
